<svg width="56" height="17" viewBox="0 0 56 17" fill="none" xmlns="http://www.w3.org/2000/svg">
<path d="M4.94423 13.0804V11.0903H6.92025V13.0804H4.94423ZM1.78871 17C1.67638 17 1.53852 16.9899 1.37512 16.9696C1.21173 16.9595 1.04323 16.9494 0.869629 16.9392L0.946219 14.9794C1.10961 14.9794 1.2679 14.9845 1.42108 14.9946C1.57426 15.0048 1.68659 15.0098 1.75807 15.0098C2.13592 15.0098 2.43207 14.863 2.64652 14.5693C2.87119 14.2755 2.98352 13.8502 2.98352 13.2931V5.43879H5.32718V13.2931C5.32718 14.0122 5.1791 14.6503 4.88295 15.2073C4.58681 15.7745 4.17322 16.2151 3.64219 16.529C3.11117 16.843 2.49334 17 1.78871 17ZM6.92025 13.0804V11.0903C6.98152 11.0903 7.02748 11.1156 7.05812 11.1662C7.09896 11.2067 7.1296 11.2726 7.15002 11.3637C7.18066 11.4447 7.20108 11.546 7.2113 11.6676C7.22151 11.7891 7.22661 11.9258 7.22661 12.0777C7.22661 12.2297 7.22151 12.3715 7.2113 12.5031C7.20108 12.6247 7.18066 12.731 7.15002 12.8222C7.1296 12.9032 7.09896 12.969 7.05812 13.0197C7.02748 13.0602 6.98152 13.0804 6.92025 13.0804Z" fill="url(#paint0_linear_1564_21768)"/>
<path d="M16.1086 13.0804V11.0903H17.7016V13.0804H16.1086ZM6.91774 13.0804C6.86668 13.0804 6.82072 13.0602 6.77988 13.0197C6.73903 12.969 6.70839 12.9032 6.68797 12.8222C6.66754 12.731 6.65223 12.6247 6.64201 12.5031C6.62159 12.3715 6.61138 12.2297 6.61138 12.0777C6.61138 11.8752 6.62159 11.703 6.64201 11.5612C6.66244 11.4093 6.69818 11.2928 6.74924 11.2118C6.79009 11.1308 6.84626 11.0903 6.91774 11.0903V13.0804ZM6.90242 13.0804V11.0903H14.7146L13.7649 11.9258V9.29759C13.7649 8.80131 13.7087 8.41644 13.5964 8.14299C13.4943 7.86953 13.3054 7.67709 13.0296 7.56568C12.7641 7.45428 12.3914 7.39857 11.9114 7.39857C11.4927 7.39857 11.0842 7.42389 10.686 7.47453C10.2979 7.52517 9.99156 7.59607 9.76689 7.68722L11.2221 6.35031C11.1608 6.57313 11.0996 6.86178 11.0383 7.21627C10.9872 7.57075 10.9413 7.94549 10.9004 8.34048C10.8698 8.72535 10.8545 9.10009 10.8545 9.4647C10.8545 9.79893 10.8698 10.1534 10.9004 10.5282C10.9413 10.9029 10.9821 11.2371 11.023 11.5308C11.074 11.8144 11.1098 12.0069 11.1302 12.1081L8.90908 12.731C8.85802 12.5791 8.80186 12.3411 8.74059 12.017C8.67931 11.6929 8.62825 11.3131 8.58741 10.8776C8.54656 10.4319 8.52613 9.96098 8.52613 9.4647C8.52613 8.96842 8.54656 8.48734 8.58741 8.02145C8.63847 7.54543 8.69974 7.11498 8.77122 6.73012C8.84271 6.34525 8.90908 6.04141 8.97036 5.81859C9.21544 5.72744 9.6035 5.63628 10.1345 5.54513C10.6758 5.45398 11.2681 5.4084 11.9114 5.4084C12.8509 5.4084 13.627 5.535 14.2398 5.7882C14.8627 6.04141 15.3273 6.45159 15.6337 7.01877C15.9503 7.58594 16.1086 8.35061 16.1086 9.31278V13.0804H6.90242ZM17.7016 13.0804V11.0903C17.7629 11.0903 17.8089 11.1156 17.8395 11.1662C17.8803 11.2067 17.911 11.2726 17.9314 11.3637C17.962 11.4447 17.9825 11.546 17.9927 11.6676C18.0029 11.7891 18.008 11.9258 18.008 12.0777C18.008 12.2297 18.0029 12.3715 17.9927 12.5031C17.9825 12.6247 17.962 12.731 17.9314 12.8222C17.911 12.9032 17.8803 12.969 17.8395 13.0197C17.8089 13.0602 17.7629 13.0804 17.7016 13.0804Z" fill="url(#paint1_linear_1564_21768)"/>
<path d="M22.7428 13.0804V11.0903H24.7342V13.0804H22.7428ZM24.7342 13.0804V11.0903C24.7954 11.0903 24.8414 11.1156 24.872 11.1662C24.9129 11.2067 24.9435 11.2726 24.9639 11.3637C24.9946 11.4447 25.015 11.546 25.0252 11.6676C25.0354 11.7891 25.0405 11.9258 25.0405 12.0777C25.0405 12.2297 25.0354 12.3715 25.0252 12.5031C25.015 12.6247 24.9946 12.731 24.9639 12.8222C24.9435 12.9032 24.9129 12.969 24.872 13.0197C24.8414 13.0602 24.7954 13.0804 24.7342 13.0804ZM17.7032 13.0804C17.6419 13.0804 17.596 13.0602 17.5653 13.0197C17.5245 12.969 17.4938 12.9032 17.4734 12.8222C17.453 12.731 17.4377 12.6247 17.4275 12.5031C17.407 12.3715 17.3968 12.2297 17.3968 12.0777C17.3968 11.8752 17.407 11.703 17.4275 11.5612C17.4479 11.4093 17.4836 11.2928 17.5347 11.2118C17.5755 11.1308 17.6317 11.0903 17.7032 11.0903V13.0804ZM17.7032 13.0804V11.0903H21.8237L20.3992 12.2601V5.43879H22.7428V13.0804H17.7032ZM20.583 1.61037V0H22.5896V1.61037H20.583ZM18.9593 4.02592V2.17248H21.1957V4.02592H18.9593ZM21.9769 4.02592V2.17248H24.2134V4.02592H21.9769Z" fill="url(#paint2_linear_1564_21768)"/>
<path d="M29.7736 13.0804V11.0903H31.7649V13.0804H29.7736ZM31.7649 13.0804V11.0903C31.8262 11.0903 31.8721 11.1156 31.9028 11.1662C31.9436 11.2067 31.9743 11.2726 31.9947 11.3637C32.0253 11.4447 32.0457 11.546 32.0559 11.6676C32.0662 11.7891 32.0713 11.9258 32.0713 12.0777C32.0713 12.2297 32.0662 12.3715 32.0559 12.5031C32.0457 12.6247 32.0253 12.731 31.9947 12.8222C31.9743 12.9032 31.9436 12.969 31.9028 13.0197C31.8721 13.0602 31.8262 13.0804 31.7649 13.0804ZM24.7342 13.0804C24.6729 13.0804 24.6267 13.0602 24.5961 13.0197C24.5552 12.969 24.5246 12.9032 24.5042 12.8222C24.4837 12.731 24.4684 12.6247 24.4582 12.5031C24.4378 12.3715 24.4276 12.2297 24.4276 12.0777C24.4276 11.8752 24.4378 11.703 24.4582 11.5612C24.4786 11.4093 24.5144 11.2928 24.5654 11.2118C24.6063 11.1308 24.6627 11.0903 24.7342 11.0903V13.0804ZM24.7342 13.0804V11.0903H28.8545L27.4299 12.2601V5.43879H29.7736V13.0804H24.7342ZM25.99 4.02592V2.17248H28.2264V4.02592H25.99ZM29.0077 4.02592V2.17248H31.2441V4.02592H29.0077Z" fill="url(#paint3_linear_1564_21768)"/>
<path d="M45.0914 13.0804V11.0903H46.6844V13.0804H45.0914ZM31.7649 13.0804C31.7138 13.0804 31.6677 13.0602 31.6268 13.0197C31.586 12.969 31.5553 12.9032 31.5349 12.8222C31.5145 12.731 31.4992 12.6247 31.4889 12.5031C31.4685 12.3715 31.4583 12.2297 31.4583 12.0777C31.4583 11.8752 31.4685 11.703 31.4889 11.5612C31.5094 11.4093 31.5451 11.2928 31.5962 11.2118C31.637 11.1308 31.6934 11.0903 31.7649 11.0903V13.0804ZM41.0933 13.0804C40.644 13.0804 40.1998 12.9994 39.7607 12.8374C39.3318 12.6652 38.9335 12.417 38.5659 12.0929L39.9905 10.6345C40.1743 10.7864 40.3581 10.9029 40.5419 10.9839C40.7257 11.0548 40.9095 11.0903 41.0933 11.0903H44.0191L42.7477 12.2145V8.91778C42.7477 8.76586 42.7273 8.52785 42.6864 8.20375C42.6558 7.86953 42.6047 7.49479 42.5332 7.07954C42.472 6.65416 42.4005 6.22371 42.3188 5.7882L44.6165 5.43879C44.688 5.8034 44.7595 6.21358 44.8309 6.66935C44.9024 7.12511 44.9637 7.55556 45.0148 7.96068C45.0658 8.3658 45.0914 8.68484 45.0914 8.91778V13.0804H41.0933ZM31.7649 13.0804V11.0903H33.9858L33.4956 11.6068V7.00358H35.8393V13.0804H31.7649ZM35.8393 13.0804V11.0903H36.9268C37.2434 11.0903 37.4834 11.0447 37.6468 10.9535C37.8204 10.8522 37.9378 10.6548 37.9991 10.361C38.0706 10.0572 38.1063 9.60143 38.1063 8.99374V6.24397H40.45V8.99374C40.45 9.94579 40.3223 10.7256 40.067 11.3333C39.8117 11.9309 39.4237 12.3715 38.9029 12.6551C38.3923 12.9386 37.7336 13.0804 36.9268 13.0804H35.8393ZM46.6844 13.0804V11.0903C46.7355 11.0903 46.7814 11.1156 46.8223 11.1662C46.8631 11.2067 46.8938 11.2726 46.9142 11.3637C46.9346 11.4447 46.9499 11.546 46.9602 11.6676C46.9806 11.7891 46.9908 11.9258 46.9908 12.0777C46.9908 12.2297 46.9806 12.3715 46.9602 12.5031C46.9499 12.6247 46.9346 12.731 46.9142 12.8222C46.8938 12.9032 46.8631 12.969 46.8223 13.0197C46.7814 13.0602 46.7355 13.0804 46.6844 13.0804Z" fill="url(#paint4_linear_1564_21768)"/>
<path d="M46.6635 13.0804V11.0903H54.4757L53.526 11.9258V9.29759C53.526 8.80131 53.4698 8.41644 53.3575 8.14299C53.2554 7.86953 53.0664 7.67709 52.7907 7.56568C52.5252 7.45428 52.1525 7.39857 51.6725 7.39857C51.2538 7.39857 50.8453 7.42389 50.447 7.47453C50.059 7.52517 49.7526 7.59607 49.528 7.68722L50.9832 6.35031C50.9219 6.57313 50.8606 6.86178 50.7994 7.21627C50.7483 7.57075 50.7023 7.94549 50.6615 8.34048C50.6309 8.72535 50.6155 9.10009 50.6155 9.4647C50.6155 9.79893 50.6309 10.1534 50.6615 10.5282C50.7023 10.9029 50.7432 11.2371 50.784 11.5308C50.8351 11.8144 50.8708 12.0069 50.8913 12.1081L48.6702 12.731C48.6191 12.5791 48.5629 12.3411 48.5017 12.017C48.4404 11.6929 48.3893 11.3131 48.3485 10.8776C48.3076 10.4319 48.2872 9.96098 48.2872 9.4647C48.2872 8.96842 48.3076 8.48734 48.3485 8.02145C48.3995 7.54543 48.4608 7.11498 48.5323 6.73012C48.6038 6.34525 48.6702 6.04141 48.7314 5.81859C48.9765 5.72744 49.3646 5.63628 49.8956 5.54513C50.4368 5.45398 51.0291 5.4084 51.6725 5.4084C52.612 5.4084 53.3881 5.535 54.0008 5.7882C54.6238 6.04141 55.0884 6.45159 55.3948 7.01877C55.7113 7.58594 55.8696 8.35061 55.8696 9.31278V13.0804H46.6635ZM46.6788 13.0804C46.6277 13.0804 46.5818 13.0602 46.5409 13.0197C46.5001 12.969 46.4695 12.9032 46.449 12.8222C46.4286 12.731 46.4133 12.6247 46.4031 12.5031C46.3827 12.3715 46.3724 12.2297 46.3724 12.0777C46.3724 11.8752 46.3827 11.703 46.4031 11.5612C46.4235 11.4093 46.4592 11.2928 46.5103 11.2118C46.5512 11.1308 46.6073 11.0903 46.6788 11.0903V13.0804Z" fill="url(#paint5_linear_1564_21768)"/>
<defs>
<linearGradient id="paint0_linear_1564_21768" x1="0.869629" y1="8.5" x2="55.8696" y2="8.5" gradientUnits="userSpaceOnUse">
<stop stop-color="#223F48"/>
<stop offset="1" stop-color="#5AC3E2"/>
</linearGradient>
<linearGradient id="paint1_linear_1564_21768" x1="0.869629" y1="8.5" x2="55.8696" y2="8.5" gradientUnits="userSpaceOnUse">
<stop stop-color="#223F48"/>
<stop offset="1" stop-color="#5AC3E2"/>
</linearGradient>
<linearGradient id="paint2_linear_1564_21768" x1="0.869629" y1="8.5" x2="55.8696" y2="8.5" gradientUnits="userSpaceOnUse">
<stop stop-color="#223F48"/>
<stop offset="1" stop-color="#5AC3E2"/>
</linearGradient>
<linearGradient id="paint3_linear_1564_21768" x1="0.869629" y1="8.5" x2="55.8696" y2="8.5" gradientUnits="userSpaceOnUse">
<stop stop-color="#223F48"/>
<stop offset="1" stop-color="#5AC3E2"/>
</linearGradient>
<linearGradient id="paint4_linear_1564_21768" x1="0.869629" y1="8.5" x2="55.8696" y2="8.5" gradientUnits="userSpaceOnUse">
<stop stop-color="#223F48"/>
<stop offset="1" stop-color="#5AC3E2"/>
</linearGradient>
<linearGradient id="paint5_linear_1564_21768" x1="0.869629" y1="8.5" x2="55.8696" y2="8.5" gradientUnits="userSpaceOnUse">
<stop stop-color="#223F48"/>
<stop offset="1" stop-color="#5AC3E2"/>
</linearGradient>
</defs>
</svg>
