<svg width="22" height="19" viewBox="0 0 22 19" fill="none" xmlns="http://www.w3.org/2000/svg">
<path d="M21.8926 13.5494C21.6506 12.1896 21.0159 10.6017 20.1083 9.07636C19.1997 7.55207 18.114 6.255 17.052 5.4249C15.8229 4.46449 14.7071 4.21345 13.9071 4.71647C13.9007 4.72027 13.8943 4.72218 13.888 4.72598L13.6615 4.87242V3.24068C13.6615 3.22927 13.6633 3.21881 13.6633 3.2074C13.6633 2.22608 12.8689 1.3636 11.4261 0.778784C10.1879 0.276708 8.55708 0 6.83212 0C5.10809 0 3.4764 0.276708 2.23813 0.778784C0.8054 1.35978 0.0127901 2.21464 0.00182641 3.18741C0.00182641 3.19502 0 3.20167 0 3.20928V14.856C0 15.8373 0.794433 16.6988 2.23722 17.2846C3.47546 17.7867 5.10624 18.0634 6.83027 18.0634C8.5543 18.0634 10.1853 17.7867 11.4233 17.2846C12.1684 16.9822 12.7392 16.6056 13.1181 16.1777C13.519 16.6827 13.9354 17.14 14.3582 17.5347C15.3974 18.5027 16.3626 19 17.1706 19C17.5103 19 17.8226 18.9116 18.1002 18.7328C18.1011 18.7328 18.1021 18.7318 18.1021 18.7318L21.0625 16.8215C21.0707 16.8158 21.0798 16.812 21.0881 16.8062C21.5519 16.5067 22.2742 15.6851 21.8925 13.5474L21.8926 13.5494ZM18.9394 9.83222C19.7603 11.2091 20.3292 12.6222 20.5411 13.8108C20.7237 14.8369 20.5867 15.4416 20.3676 15.5881C20.3657 15.589 20.3639 15.59 20.3621 15.5909L20.3539 15.5966C19.8461 15.8943 17.8865 14.8045 16.0383 11.7027C15.2174 10.3258 14.6485 8.91277 14.4366 7.7241C14.2531 6.69236 14.3928 6.08663 14.6138 5.94401C14.6686 5.90882 14.7407 5.89076 14.8293 5.89076C15.5415 5.89076 17.2857 7.05562 18.9403 9.83214L18.9394 9.83222ZM10.9027 6.65155C10.9027 6.65155 10.9018 6.6525 10.9009 6.6525C10.4087 6.97011 10.1156 7.51783 10.0224 8.25286C9.07641 8.50486 7.98063 8.63892 6.82919 8.63892C5.55443 8.63892 4.34635 8.47632 3.33648 8.16917C1.89643 7.7289 1.37321 7.14696 1.37321 6.86263V5.20616C1.6289 5.3621 1.91562 5.50665 2.23705 5.63691C3.47529 6.13898 5.10607 6.41569 6.83103 6.41569C8.55506 6.41569 10.1868 6.13898 11.425 5.63691C11.7446 5.50759 12.0314 5.36305 12.2861 5.20806V5.76052L10.9036 6.65248L10.9027 6.65155ZM1.37391 10.8488V8.86426C1.80493 9.12576 2.33182 9.35397 2.95093 9.54321C4.08507 9.8884 5.42652 10.07 6.83005 10.07C7.97605 10.07 9.08006 9.94641 10.0663 9.71345C10.1129 10.0177 10.1786 10.3372 10.269 10.6748C10.3859 11.1132 10.5366 11.5648 10.7165 12.0222C9.67093 12.4036 8.27386 12.6251 6.83012 12.6251C3.33461 12.6251 1.39785 11.4631 1.374 10.8602L1.37391 10.8488ZM6.83096 1.43288C10.3466 1.43288 12.2707 2.59582 12.2861 3.2006C12.2861 3.20346 12.2852 3.20726 12.2852 3.21011V3.22533C12.2496 3.83295 10.3283 4.98355 6.83099 4.98355C3.30064 4.98355 1.37487 3.81109 1.37487 3.20821C1.37487 2.60533 3.30069 1.43288 6.83096 1.43288ZM6.83005 16.6312C3.29971 16.6312 1.37393 15.4588 1.37393 14.8559V12.8466C1.63419 13.0054 1.92731 13.1528 2.25603 13.285C3.49245 13.7823 5.11687 14.0562 6.82991 14.0562C8.50006 14.0562 10.0863 13.7919 11.3016 13.3231C11.4806 13.6768 11.6733 14.0315 11.8815 14.3814C12.0039 14.5868 12.1308 14.7865 12.2586 14.9824C12.0203 15.6081 10.1237 16.6303 6.82893 16.6303L6.83005 16.6312ZM13.0513 13.6273C12.3801 12.5005 11.8761 11.347 11.5948 10.2916C11.1958 8.78724 11.3948 8.01893 11.6268 7.86773L12.981 6.99481C12.9883 7.28863 13.0193 7.61576 13.0851 7.9847C13.3271 9.34448 13.9617 10.9324 14.8694 12.4577C15.7779 13.982 16.8637 15.2791 17.9256 16.1092C18.2005 16.3241 18.469 16.5 18.7292 16.6436L17.3768 17.5165C17.144 17.6658 16.3925 17.5108 15.2757 16.4696C14.4922 15.7374 13.7233 14.7551 13.0512 13.6283L13.0513 13.6273Z" fill="#223F48"/>
</svg>
